<?xml version="1.0" encoding="UTF-8"?>
<!DOCTYPE svg PUBLIC "-//W3C//DTD SVG 1.1//EN" "http://www.w3.org/Graphics/SVG/1.1/DTD/svg11.dtd">
<svg xmlns="http://www.w3.org/2000/svg" version="1.1" width="512px" height="512px" style="shape-rendering:geometricPrecision; text-rendering:geometricPrecision; image-rendering:optimizeQuality; fill-rule:evenodd; clip-rule:evenodd" xmlns:xlink="http://www.w3.org/1999/xlink">
<g><path style="opacity:0.997" fill="#e4e7ee" d="M 369.5,389.5 C 306.13,429.414 239.796,434.914 170.5,406C 160.779,400.808 151.113,395.642 141.5,390.5C 83.4513,349.09 53.118,292.424 50.5,220.5C 54.4195,133.77 95.0862,71.2696 172.5,33C 244.492,4.33389 312.492,11.6672 376.5,55C 436.45,102.092 463.95,163.925 459,240.5C 451.572,304.086 421.738,353.752 369.5,389.5 Z"/></g>
<g><path style="opacity:1" fill="#0e9cfe" d="M 144.5,80.5 C 162.239,80.0618 169.072,88.3951 165,105.5C 159.722,112.928 152.555,115.428 143.5,113C 133.518,106.718 131.018,98.2183 136,87.5C 138.441,84.5464 141.275,82.2131 144.5,80.5 Z"/></g>
<g><path style="opacity:1" fill="#33527d" d="M 240.5,95.5 C 295.032,92.1793 336.532,113.513 365,159.5C 388.827,207.751 385.16,253.751 354,297.5C 325.013,332.173 287.846,348.007 242.5,345C 190.568,337.058 155.401,308.558 137,259.5C 121.67,205.637 134.837,160.137 176.5,123C 195.427,108.085 216.76,98.9182 240.5,95.5 Z"/></g>
<g><path style="opacity:1" fill="#079bfe" d="M 242.5,122.5 C 284.474,119.738 316.974,135.738 340,170.5C 360.197,209.18 357.53,246.18 332,281.5C 300.788,316.429 262.955,326.262 218.5,311C 178.991,292.512 158.658,261.346 157.5,217.5C 163,165.336 191.333,133.67 242.5,122.5 Z"/></g>
<g><path style="opacity:1" fill="#367de2" d="M 248.5,150.5 C 290.446,150.286 315.946,170.619 325,211.5C 327.195,243.589 314.362,267.423 286.5,283C 248.588,297.701 218.088,288.535 195,255.5C 177.457,217.572 185.29,186.072 218.5,161C 227.9,155.369 237.9,151.869 248.5,150.5 Z"/></g>
<g><path style="opacity:1" fill="#0b9cfe" d="M 245.5,171.5 C 276.969,169.169 296.469,183.169 304,213.5C 305.41,243.421 291.577,261.921 262.5,269C 232.098,270.255 213.598,256.088 207,226.5C 205.95,198.392 218.784,180.059 245.5,171.5 Z"/></g>
<g><path style="opacity:1" fill="#e2e7ef" d="M 241.5,187.5 C 259.991,185.171 269.158,193.171 269,211.5C 263.913,224.96 254.413,229.794 240.5,226C 228.528,218.414 225.695,208.247 232,195.5C 234.772,192.217 237.939,189.55 241.5,187.5 Z"/></g>
<g><path style="opacity:1" fill="#e0e6ef" d="M 266.5,228.5 C 281.627,229.091 286.46,236.425 281,250.5C 273.967,257.079 266.967,257.079 260,250.5C 254.958,240.821 257.124,233.487 266.5,228.5 Z"/></g>
<g><path style="opacity:0.999" fill="#cdd4df" d="M 369.5,389.5 C 384.131,404.632 398.965,419.632 414,434.5C 419.379,442.114 421.546,450.448 420.5,459.5C 310.5,459.5 200.5,459.5 90.5,459.5C 89.4628,450.427 91.6295,442.093 97,434.5C 111.701,419.631 126.535,404.965 141.5,390.5C 151.113,395.642 160.779,400.808 170.5,406C 239.796,434.914 306.13,429.414 369.5,389.5 Z"/></g>
<g><path style="opacity:0.998" fill="#33527d" d="M 90.5,459.5 C 200.5,459.5 310.5,459.5 420.5,459.5C 419.05,476.897 410.05,488.397 393.5,494C 347.531,495.152 301.531,495.652 255.5,495.5C 209.469,495.652 163.469,495.152 117.5,494C 100.95,488.397 91.9501,476.897 90.5,459.5 Z"/></g>
</svg>
